# xmcd
#
# Track frame offsets:
#	150
#	19725
#	41249
#	52574
#	70497
#	83845
#	97269
#	111443
#	128467
#	146616
#
# Disc length: 2162 seconds
#
# Revision: 1
# Processed by: cddbd v1.5.2PL0 Copyright (c) Steve Scherf et al.
# Submitted via: EZCDAudioConverter 8.5.0.1
#
DISCID=8708700a
DTITLE=Sinner's Soul - Like A Lonely Wolf
DYEAR=2018
DGENRE=Blues, bluesrock
TTITLE0=Story of a Bluesman
TTITLE1=Queen of All the Games
TTITLE2=If Today God Is Smiling
TTITLE3=Like My Heart the Sky Is Crying
TTITLE4=It Won´t Be Long
TTITLE5=Doctor´s Order
TTITLE6=I Am Leaving
TTITLE7=Trains
TTITLE8=There Was No Time
TTITLE9=Like a Lonely Wolf
EXTD=
EXTT0=
EXTT1=
EXTT2=
EXTT3=
EXTT4=
EXTT5=
EXTT6=
EXTT7=
EXTT8=
EXTT9=
PLAYORDER=
